<svg data-v-c68a35dd="" xmlns="http://www.w3.org/2000/svg" width="14" height="8" viewBox="0 0 14 8" fill="none"><path data-v-c68a35dd="" d="M13.178 0.563673L13.1781 0.563591C13.199 0.54206 13.2213 0.527608 13.2425 0.518793C13.2636 0.510036 13.2846 0.50644 13.3046 0.507058C13.3247 0.507677 13.3459 0.512579 13.3672 0.522963C13.3887 0.533415 13.4109 0.549771 13.4313 0.573294C13.4518 0.596899 13.4697 0.626901 13.4822 0.662434C13.4947 0.697996 13.5009 0.737025 13.4999 0.776911C13.4989 0.816796 13.4906 0.855062 13.4765 0.889246C13.4625 0.923341 13.4435 0.951454 13.4225 0.97306C13.4225 0.973094 13.4225 0.973127 13.4224 0.973161L7.12621 7.44323L7.12603 7.44341C7.0858 7.4848 7.04133 7.5 7.00393 7.5C6.96654 7.5 6.92206 7.4848 6.88183 7.44341L6.88163 7.44321L0.584624 0.97304L0.584659 0.973007L0.57978 0.96813C0.558473 0.946833 0.539062 0.91888 0.524607 0.884734C0.510135 0.85055 0.501486 0.812108 0.500174 0.771904C0.498861 0.731707 0.504971 0.692287 0.517427 0.656343C0.529875 0.62043 0.547895 0.590119 0.568559 0.56631C0.589149 0.542584 0.611577 0.526152 0.633184 0.515712C0.654649 0.505341 0.675954 0.50052 0.6962 0.50004C0.716437 0.499561 0.737578 0.503368 0.758875 0.512472C0.780313 0.521637 0.802779 0.536587 0.82378 0.558766L0.823747 0.558798L0.828533 0.563717L6.64562 6.54063L7.00397 6.90883L7.36229 6.54059L13.178 0.563673Z" stroke="#3C3C3B"></path></svg>