<svg data-v-5e3c9802="" width="64" height="64" viewBox="0 0 64 64" fill="none" xmlns="http://www.w3.org/2000/svg"><path data-v-5e3c9802="" d="M27.26 26.73H22.5V38.16H27.26V26.73Z" stroke="white" stroke-miterlimit="10"></path><path data-v-5e3c9802="" d="M38.77 36.4199C39.2701 36.446 39.7702 36.37 40.24 36.1966C40.7097 36.0231 41.1393 35.7559 41.5025 35.4112C41.8657 35.0664 42.1549 34.6514 42.3525 34.1913C42.5501 33.7312 42.652 33.2357 42.652 32.7349C42.652 32.2342 42.5501 31.7387 42.3525 31.2786C42.1549 30.8185 41.8657 30.4034 41.5025 30.0587C41.1393 29.7139 40.7097 29.4467 40.24 29.2733C39.7702 29.0999 39.2701 29.0239 38.77 29.0499" stroke="white" stroke-miterlimit="10"></path><path data-v-5e3c9802="" d="M27.2598 26.7301V38.1701L36.1298 42.6401V21.8501L27.2598 26.7301Z" stroke="white" stroke-miterlimit="10"></path><path data-v-5e3c9802="" class="toggle-muted__bar" d="M43 21L22 43" stroke="white" stroke-width="1.04878"></path><rect data-v-5e3c9802="" x="0.5" y="0.5" width="63" height="63" rx="31.5" stroke="white"></rect></svg>